<?xml version="1.0" encoding="utf-8"?>
<!-- Generator: Adobe Illustrator 22.1.0, SVG Export Plug-In . SVG Version: 6.00 Build 0)  -->
<svg version="1.1" id="Layer_1" xmlns="http://www.w3.org/2000/svg" xmlns:xlink="http://www.w3.org/1999/xlink" x="0px" y="0px"
	 viewBox="0 0 155 193" style="enable-background:new 0 0 155 193;" xml:space="preserve">
<style type="text/css">
	.st0{fill:#010101;}
	.st1{font-family:'ArialMT';}
	.st2{font-size:7.4386px;}
	.st3{fill:#231F20;}
	.st4{fill:none;stroke:#010101;stroke-width:0.7282;stroke-miterlimit:10;}
	.st5{fill:none;stroke:#010101;stroke-width:0.4854;stroke-miterlimit:10;}
	.st6{fill:#B8982F;}
	.st7{font-family:'Arial-BoldMT';}
	.st8{font-size:6.9129px;}
	.st9{fill:#6897ff;}
	.st10{fill:#68ff6a;}
	.st11{fill:#9D5BA4;}
	.st12{font-size:4.8544px;}
	.st13{font-size:6.0488px;}
	.st14{font-size:4.0325px;}
	.st15{font-family:'Arial-ItalicMT';}
	.st16{font-size:4.6086px;}
	.st17{letter-spacing:6;}
	.st18{letter-spacing:12;}
	.st19{letter-spacing:16;}
	.st20{fill:#EA8280;}
	.st21{fill:none;stroke:#010101;stroke-width:0.2427;stroke-miterlimit:10;}
	.st22{fill:#FCE99C;}
	.st23{font-size:3.1804px;}
	.st24{font-size:2.3852px;}
	.st25{fill:none;}
	.st26{font-size:3.1198px;}
	.st27{font-size:2.3399px;}
	.st28{fill-rule:evenodd;clip-rule:evenodd;fill:#EA8280;}
	.st29{fill:none;stroke:#010101;stroke-width:0.3175;stroke-linejoin:round;stroke-miterlimit:10;}
	.st30{font-size:6.1165px;}
	.st31{fill-rule:evenodd;clip-rule:evenodd;fill:#FCE99C;}
</style>
<text transform="matrix(1.001 0 0 1 58.3682 138.2441)" class="st0 st1 st2"> </text>
<line class="st3" x1="24.9" y1="11.2" x2="35.4" y2="11.2"/>
<line class="st4" x1="24.9" y1="11.2" x2="35.4" y2="11.2"/>
<line class="st4" x1="30.3" y1="30.6" x2="38.6" y2="30.6"/>
<line class="st4" x1="30.3" y1="50" x2="38.6" y2="50"/>
<line class="st3" x1="33.4" y1="69.1" x2="35.1" y2="69.1"/>
<line class="st4" x1="33.4" y1="69.1" x2="35.1" y2="69.1"/>
<line class="st3" x1="32.2" y1="107.5" x2="34.9" y2="107.5"/>
<line class="st4" x1="32.2" y1="107.5" x2="34.9" y2="107.5"/>
<line class="st4" x1="33.3" y1="88.4" x2="34.1" y2="88.4"/>
<line class="st3" x1="17.4" y1="93.1" x2="32" y2="93.1"/>
<line class="st4" x1="17.4" y1="93.1" x2="32" y2="93.1"/>
<line class="st3" x1="24.7" y1="40.1" x2="30.3" y2="40.1"/>
<line class="st4" x1="24.7" y1="40.1" x2="30.3" y2="40.1"/>
<line class="st3" x1="17.4" y1="25.9" x2="24.7" y2="25.9"/>
<line class="st4" x1="17.4" y1="25.9" x2="24.7" y2="25.9"/>
<line class="st3" x1="24.7" y1="10.7" x2="24.7" y2="40.5"/>
<line class="st5" x1="24.7" y1="10.7" x2="24.7" y2="40.5"/>
<line class="st3" x1="30.3" y1="30.2" x2="30.3" y2="50.4"/>
<line class="st5" x1="30.3" y1="30.2" x2="30.3" y2="50.4"/>
<line class="st3" x1="17.4" y1="25.4" x2="17.4" y2="93.4"/>
<line class="st5" x1="17.4" y1="25.4" x2="17.4" y2="93.4"/>
<line class="st3" x1="32" y1="78.3" x2="32" y2="107.9"/>
<line class="st5" x1="32" y1="78.3" x2="32" y2="107.9"/>
<line class="st3" x1="32.2" y1="78.6" x2="33.2" y2="78.6"/>
<line class="st4" x1="32.2" y1="78.6" x2="33.2" y2="78.6"/>
<line class="st3" x1="33.2" y1="68.6" x2="33.2" y2="88.8"/>
<line class="st5" x1="33.2" y1="68.6" x2="33.2" y2="88.8"/>
<line class="st4" x1="9.1" y1="58.3" x2="17.4" y2="58.3"/>
<text transform="matrix(1.001 0 0 1 38.8037 111.5)" class="st6 st7 st8">VIM7 </text>
<text transform="matrix(1.001 0 0 1 38.8037 91.936)" class="st0 st1 st8">VIM1 </text>
<text transform="matrix(1.001 0 0 1 38.8037 72.3652)" class="st9 st7 st8">VIM2 </text>
<text transform="matrix(1.001 0 0 1 38.8037 52.8018)" class="st10 st7 st8">NDM1 </text>
<text transform="matrix(1.001 0 0 1 38.8037 33.2378)" class="st11 st7 st8">EBL1 </text>
<text transform="matrix(1.001 0 0 1 38.8037 13.6748)" class="st0 st1 st8">FIM1 </text>
<text transform="matrix(1.001 0 0 1 17.4092 23.876)" class="st0 st1 st12">99 </text>
<text transform="matrix(1.001 0 0 1 21.8311 46.0942)" class="st0 st1 st12">95 </text>
<text transform="matrix(1.001 0 0 1 25.5386 78.2739)" class="st0 st1 st12">85 </text>
<text transform="matrix(1.001 0 0 1 15.1162 99.7891)" class="st0 st1 st12">100 </text>
<text transform="matrix(1.001 0 0 1 55.1431 128.002)" class="st0 st1 st13">10</text>
<text transform="matrix(1.001 0 0 1 61.877 126.188)" class="st0 st1 st14">-2</text>
<text transform="matrix(1.001 0 0 1 66.438 128.002)" class="st0 st1 st13"> </text>
<text transform="matrix(1.001 0 0 1 73.5098 135.124)" class="st0 st15 st8">k</text>
<text transform="matrix(1.001 0 0 1 76.9702 136.8521)" class="st0 st1 st16">cat</text>
<text transform="matrix(1.001 0 0 1 83.123 135.124)" class="st0 st1 st8">/</text>
<text transform="matrix(1.001 0 0 1 85.0469 135.124)" class="st0 st15 st8">K</text>
<text transform="matrix(1.001 0 0 1 89.6621 136.8521)" class="st0 st1 st16">M </text>
<text transform="matrix(1.001 0 0 1 94.7861 135.124)" class="st0 st1 st8">(M</text>
<text transform="matrix(1.001 0 0 1 102.855 133.0498)" class="st0 st1 st16">-1</text>
<text transform="matrix(1.001 0 0 1 106.957 135.124)" class="st0 st1 st8">s</text>
<text transform="matrix(1.001 0 0 1 110.417 133.0498)" class="st0 st1 st16">-1</text>
<text transform="matrix(1.001 0 0 1 114.519 135.124)" class="st0 st1 st8">) </text>
<text transform="matrix(1.001 0 0 1 71.6729 128.002)" class="st0 st1 st13">10</text>
<text transform="matrix(1.001 0 0 1 78.4082 126.188)" class="st0 st1 st14">0</text>
<text transform="matrix(1.001 0 0 1 79.6821 128.002)"><tspan x="0" y="0" class="st0 st1 st13 st17"> </tspan><tspan x="8.7" y="0" class="st0 st1 st13">10</tspan></text>
<text transform="matrix(1.001 0 0 1 95.0801 126.188)" class="st0 st1 st14">2</text>
<text transform="matrix(1.001 0 0 1 91.5 128.002)"><tspan x="0" y="0" class="st0 st1 st13 st18"> </tspan><tspan x="14.1" y="0" class="st0 st1 st13">10</tspan></text>
<text transform="matrix(1.001 0 0 1 112.3208 126.188)" class="st0 st1 st14">4</text>
<text transform="matrix(1.001 0 0 1 103.8872 128.002)"><tspan x="0" y="0" class="st0 st1 st13 st19"> </tspan><tspan x="18.6" y="0" class="st0 st1 st13">10</tspan></text>
<text transform="matrix(1.001 0 0 1 129.2778 126.188)" class="st0 st1 st14">6</text>
<text transform="matrix(1.001 0 0 1 123.8779 128.002)" class="st0 st1 st13"> </text>
<rect x="59.7" y="109.8" class="st20" width="19.9" height="5.8"/>
<rect x="59.7" y="109.8" class="st21" width="19.9" height="5.8"/>
<path class="st21" d="M59.7,109.7v6 M59.6,109.8h20.1 M79.5,109.7v6 M59.6,115.5h20.1"/>
<rect x="59.7" y="104" class="st22" width="70.5" height="5.8"/>
<rect x="59.7" y="104" class="st21" width="70.5" height="5.8"/>
<path class="st21" d="M59.7,103.9v6 M59.6,104h70.7 M130.1,103.9v6 M59.6,109.8h70.7"/>
<rect x="59.7" y="90.4" class="st20" width="18.8" height="5.8"/>
<rect x="59.7" y="90.4" class="st21" width="18.8" height="5.8"/>
<path class="st21" d="M59.7,90.3v6 M59.6,90.4h19 M78.5,90.3v6 M59.6,96.2h19"/>
<rect x="59.7" y="84.6" class="st22" width="68.8" height="5.8"/>
<rect x="59.7" y="84.6" class="st21" width="68.8" height="5.8"/>
<path class="st21" d="M59.7,84.5v6 M59.6,84.6h69 M128.5,84.5v6 M59.6,90.4h69"/>
<rect x="59.7" y="71" class="st20" width="23.1" height="5.8"/>
<path class="st21" d="M59.7,70.9v6 M59.6,71h23.3 M82.8,70.9v6 M59.6,76.8h23.3"/>
<rect x="59.7" y="65.2" class="st22" width="71.7" height="5.8"/>
<path class="st21" d="M59.7,65.1v6 M59.6,65.2h71.9 M131.4,65.1v6 M59.6,71h71.9"/>
<rect x="59.7" y="51.6" class="st20" width="12.3" height="5.8"/>
<rect x="59.7" y="51.6" class="st21" width="12.3" height="5.8"/>
<path class="st21" d="M59.7,51.5v6 M59.6,51.6h12.5 M72,51.5v6 M59.6,57.4h12.5"/>
<rect x="59.7" y="45.8" class="st22" width="69.9" height="5.8"/>
<path class="st21" d="M59.7,45.7v6 M59.6,45.8h70.1 M129.6,45.7v6 M59.6,51.6h70.1"/>
<rect x="59.7" y="32.3" class="st20" width="23.7" height="5.8"/>
<path class="st21" d="M59.7,32.2v6 M59.6,32.3h23.9 M83.3,32.2v6 M59.6,38h23.9"/>
<rect x="59.7" y="26.4" class="st22" width="69.9" height="5.8"/>
<path class="st21" d="M59.7,26.3v6 M59.6,26.4h70.1 M129.6,26.3v6 M59.6,32.2h70.1"/>
<rect x="59.7" y="12.9" class="st20" width="14.9" height="5.8"/>
<path class="st21" d="M59.7,12.8v6 M59.6,12.9h15.1 M74.5,12.8v6 M59.6,18.6h15.1"/>
<rect x="59.7" y="7" class="st22" width="71.3" height="5.8"/>
<path class="st21" d="M59.7,6.9v6 M59.6,7h71.5 M131,6.9v6 M59.6,12.8h71.5"/>
<path class="st5" d="M59.7,119.2v2.5 M68,119.2v2.5 M76.4,119.2v2.5 M84.8,119.2v2.5 M93.1,119.2v2.5 M101.5,119.2v2.5 M109.8,119.2
	v2.5 M118.2,119.2v2.5 M126.6,119.2v2.5 M134.9,119.2v2.5 M59.5,119.4h75.7"/>
<polyline class="st0" points="31.3,170.5 31.4,170.8 26,170.7 26.1,170.5 "/>
<polyline class="st0" points="31,169.8 31,170.1 26.5,170.1 26.5,169.8 "/>
<polyline class="st0" points="33.9,166 34,166 34.1,166.2 31.4,170.8 31.3,170.5 "/>
<polyline class="st0" points="31.3,161.6 31.5,161.3 34.1,165.9 34,166 33.9,166 "/>
<polyline class="st0" points="30.9,162.2 31.1,162 33.4,166 33.2,166.1 "/>
<polyline class="st0" points="26.2,161.5 26,161.3 31.5,161.3 31.3,161.6 "/>
<polyline class="st0" points="23.6,166 23.4,166 23.4,165.9 26,161.3 26.2,161.5 "/>
<polyline class="st0" points="24.3,166.1 24.1,165.9 26.4,162 26.6,162.1 "/>
<polyline class="st0" points="26.1,170.5 26,170.7 23.4,166.1 23.4,166 23.6,166 "/>
<text transform="matrix(1 0 0 1 12.8018 167.0962)" class="st0 st7 st23">O</text>
<text transform="matrix(1 0 0 1 15.3687 167.7705)" class="st0 st7 st24">2</text>
<text transform="matrix(1 0 0 1 16.5308 167.0962)" class="st0 st7 st23">N</text>
<polyline class="st0" points="19.4,166.1 19.4,165.8 23.4,165.9 23.4,166 23.4,166.1 "/>
<text transform="matrix(1 0 0 1 38.0879 167.2148)" class="st0 st7 st23">O</text>
<polyline class="st0" points="37.9,165.9 37.9,166.2 34.1,166.2 34,166 34.1,165.9 "/>
<text transform="matrix(1 0 0 1 42.8311 167.2422)" class="st0 st7 st23">P</text>
<polyline class="st0" points="42.7,166 42.7,166.2 41,166.2 41,166 "/>
<text transform="matrix(1 0 0 1 42.6592 172.543)" class="st0 st7 st23">O</text>
<polyline class="st0" points="44.4,169.9 44.1,169.9 44.1,167.6 44.4,167.6 "/>
<polyline class="st0" points="43.7,169.9 43.4,169.9 43.5,167.6 43.7,167.6 "/>
<text transform="matrix(1 0 0 1 42.7129 161.9404)" class="st0 st7 st23">O</text>
<text transform="matrix(1 0 0 1 45.2046 160.8618)" class="st0 st7 st24">-</text>
<polyline class="st0" points="43.8,162.3 44.1,162.3 44.1,164.6 43.8,164.6 "/>
<polyline class="st0" points="51.3,161.6 51.2,161.4 56.6,161.4 56.4,161.7 "/>
<polyline class="st0" points="51.6,162.3 51.6,162 56.1,162.1 56.1,162.3 "/>
<polyline class="st0" points="48.7,166.1 48.5,166.1 48.5,165.9 51.2,161.4 51.3,161.6 "/>
<polyline class="st0" points="51.2,170.6 51.1,170.8 48.5,166.2 48.5,166.1 48.7,166.1 "/>
<polyline class="st0" points="51.7,170 51.4,170.1 49.2,166.1 49.4,166 "/>
<polyline class="st0" points="56.4,170.6 56.5,170.9 51.1,170.8 51.2,170.6 "/>
<polyline class="st0" points="59,166.2 59.3,166.2 56.5,170.9 56.4,170.6 "/>
<polyline class="st0" points="58.3,166.1 58.5,166.2 56.2,170.1 56,170 "/>
<polyline class="st0" points="56.4,161.7 56.6,161.4 59.3,166.2 59,166.2 "/>
<polyline class="st0" points="48.5,165.9 48.5,166.1 48.5,166.2 45.5,166.2 45.5,166 "/>
<rect x="12.3" y="158.9" class="st25" width="47.7" height="14.3"/>
<text transform="matrix(1 0 0 1 102.6001 169.8438)" class="st0 st7 st26">N</text>
<polyline class="st0" points="99.1,163.7 99,163.6 99,163.5 103.6,163.4 103.7,163.5 103.5,163.7 "/>
<polyline class="st0" points="99.1,168.5 98.9,168.8 98.9,163.7 99,163.6 99.1,163.7 "/>
<polyline class="st0" points="102.5,168.6 102.5,168.8 98.9,168.8 99.1,168.5 "/>
<text transform="matrix(1 0 0 1 94.4404 173.7041)" class="st0 st7 st26">O</text>
<polyline class="st0" points="97.2,171.4 97,171.3 99.3,168.6 99.5,168.7 "/>
<polyline class="st0" points="96.7,171 96.5,170.9 98.9,168.1 99.1,168.2 "/>
<text transform="matrix(1 0 0 1 107.1523 162.0439)" class="st0 st7 st26">S</text>
<polyline class="st0" points="106.7,161.6 106.8,161.8 103.8,163.6 103.7,163.5 103.6,163.4 "/>
<polyline class="st0" points="108.2,171.2 108.2,171.3 108.1,171.4 105.4,169.9 105.6,169.6 "/>
<polyline class="st0" points="112.8,163.4 112.5,163.6 109.8,162 109.9,161.8 "/>
<polyline class="st0" points="112.6,168.6 112.7,168.7 112.7,168.9 108.4,171.4 108.2,171.3 108.2,171.2 "/>
<polyline class="st0" points="112,168.2 112.1,168.5 108.3,170.7 108.2,170.5 "/>
<polyline class="st0" points="112.9,168.6 112.7,168.7 112.6,168.6 112.5,163.6 112.8,163.4 "/>
<polyline class="st0" points="103.8,167.3 103.6,167.3 103.5,163.7 103.7,163.5 103.8,163.6 "/>
<text transform="matrix(1 0 0 1 107.104 177.6426)" class="st0 st7 st26">COO</text>
<text transform="matrix(1 0 0 1 114.2407 176.585)" class="st0 st7 st27">-</text>
<polyline class="st0" points="108.4,175 108.1,175 108.1,171.4 108.2,171.3 108.4,171.4 "/>
<polyline class="st0" points="117.2,171.2 117.2,171.5 112.7,168.9 112.7,168.7 112.9,168.6 "/>
<polyline class="st0" points="128.7,167 128.5,166.8 133.9,166.8 133.7,167 "/>
<rect x="129" y="167.4" class="st0" width="4.5" height="0.3"/>
<polyline class="st0" points="126.2,171.4 126,171.4 126,171.2 128.5,166.8 128.7,167 "/>
<polyline class="st0" points="128.7,175.8 128.5,176.1 125.9,171.5 126,171.4 126.2,171.4 "/>
<polyline class="st0" points="129.1,175.2 128.9,175.3 126.7,171.5 126.9,171.4 "/>
<polyline class="st0" points="133.7,175.8 133.8,175.9 133.7,176.1 128.5,176.1 128.7,175.8 "/>
<polyline class="st0" points="136.3,171.4 136.4,171.4 136.5,171.5 134,175.9 133.8,175.9 133.7,175.8 "/>
<polyline class="st0" points="135.6,171.4 135.8,171.5 133.5,175.3 133.3,175.2 "/>
<polyline class="st0" points="133.7,167 133.9,166.8 136.5,171.3 136.4,171.4 136.3,171.4 "/>
<text transform="matrix(1 0 0 1 120.709 169.792)" class="st0 st7 st26">S</text>
<polyline class="st0" points="120.3,169.4 120.4,169.6 117.2,171.5 117.2,171.2 "/>
<polyline class="st0" points="126,171.2 126,171.4 125.9,171.5 123.3,169.8 123.4,169.6 "/>
<text transform="matrix(1 0 0 1 94.1538 158.5078)" class="st0 st7 st26">H</text>
<rect x="73.3" y="155.4" class="st25" width="74.1" height="26.8"/>
<text transform="matrix(1 0 0 1 94.1514 161.1011)" class="st0 st7 st26">N</text>
<polyline class="st0" points="96.5,161.6 96.9,161.2 99,163.5 99,163.6 98.9,163.7 "/>
<polyline class="st0" points="90.2,161.5 90.3,161.2 94,160.2 94,160.5 "/>
<polyline class="st0" points="86.5,157.9 86.6,157.6 90.3,161.2 90.2,161.5 "/>
<text transform="matrix(1 0 0 1 80.1523 165.6318)" class="st0 st7 st26">S</text>
<polyline class="st0" points="78,156.9 78,156.6 82.4,159.3 82.4,159.5 82.3,159.5 "/>
<polyline class="st0" points="78,157.6 78.1,157.4 81.7,159.7 81.6,159.9 "/>
<polyline class="st0" points="74.2,160.1 73.9,160 78,156.6 78,156.9 "/>
<polyline class="st0" points="76.1,164.7 75.9,165 73.9,160 74.2,160.1 "/>
<polyline class="st0" points="76.5,164.1 76.3,164.2 74.7,160.3 74.9,160.2 "/>
<polyline class="st0" points="79.9,164.5 80,164.7 75.9,165 76.1,164.7 "/>
<polyline class="st0" points="82.3,159.5 82.4,159.5 82.5,159.6 81.7,163.1 81.4,163 "/>
<polyline class="st0" points="82.5,159.6 82.4,159.5 82.4,159.3 86.6,157.6 86.5,157.9 "/>
<text transform="matrix(1 0 0 1 87.7461 167.5298)" class="st0 st7 st26">O</text>
<polyline class="st0" points="89.8,165.1 89.5,165 90.5,161.3 90.7,161.3 "/>
<polyline class="st0" points="89.1,165 88.9,164.9 89.9,161.1 90.1,161.1 "/>
<text transform="matrix(1 0 0 1 140.4932 172.5342)" class="st0 st7 st26">NO</text>
<text transform="matrix(1 0 0 1 145.3599 173.1953)" class="st0 st7 st27">2</text>
<polyline class="st0" points="140.4,171.3 140.4,171.5 136.5,171.5 136.4,171.4 136.5,171.3 "/>
<text transform="matrix(1 0 0 1 135.2988 181.543)" class="st0 st7 st26">COO</text>
<rect x="73.3" y="155.4" class="st25" width="74.1" height="26.8"/>
<text transform="matrix(1 0 0 1 142.4351 180.4844)" class="st0 st7 st27">-</text>
<polyline class="st0" points="135.8,179.1 135.6,179.2 133.7,176.1 133.8,175.9 134,175.9 "/>
<rect x="9.5" y="146" class="st28" width="7.7" height="5.8"/>
<rect x="9.5" y="146" class="st29" width="7.7" height="5.8"/>
<text transform="matrix(1 0 0 1 19.5396 151.1182)" class="st0 st1 st30">PMH activity </text>
<rect x="73.2" y="146.3" class="st31" width="7.7" height="5.8"/>
<rect x="73.2" y="146.3" class="st22" width="7.7" height="5.8"/>
<rect x="73.2" y="146.3" class="st29" width="7.7" height="5.8"/>
<path class="st0" d="M84.6,151.3c-0.4,0-0.8-0.2-1-0.5v1.6H83v-4.2c0-0.3,0-0.6,0.1-0.8c0.1-0.2,0.2-0.3,0.5-0.5
	c0.2-0.1,0.5-0.2,0.7-0.2c0.4,0,0.7,0.1,0.9,0.3c0.2,0.2,0.3,0.5,0.3,0.8c0,0.3-0.1,0.5-0.2,0.6s-0.4,0.3-0.6,0.3
	c0.3,0,0.6,0.2,0.8,0.4c0.2,0.2,0.3,0.5,0.3,0.8c0,0.3-0.1,0.6-0.3,0.9C85.3,151.1,85,151.3,84.6,151.3 M84.1,148.6
	c0.4,0,0.6-0.1,0.8-0.2c0.2-0.1,0.3-0.3,0.3-0.6c0-0.2-0.1-0.4-0.2-0.5c-0.1-0.1-0.3-0.2-0.5-0.2c-0.2,0-0.3,0-0.5,0.1
	c-0.1,0.1-0.2,0.2-0.3,0.3c0,0.1,0,0.3,0,0.6v1.2c0,0.3,0,0.6,0.1,0.8c0,0.2,0.2,0.3,0.3,0.4c0.2,0.1,0.3,0.2,0.5,0.2
	c0.2,0,0.4-0.1,0.6-0.3c0.1-0.2,0.2-0.4,0.2-0.6c0-0.2-0.1-0.4-0.2-0.6c-0.1-0.2-0.2-0.3-0.4-0.3c-0.2-0.1-0.4-0.1-0.6-0.1h-0.1
	V148.6z"/>
<text transform="matrix(1 0 0 1 86.1421 151.1958)" class="st0 st1 st30">-lactamase activity </text>
</svg>
